<svg width="1000" height="1000" viewBox="0 0 1000 1000" fill="none" xmlns="http://www.w3.org/2000/svg">
<path d="M16.1494 769.156C11.5353 769.156 7.69018 767.618 4.61411 764.542C1.53804 760.954 0 757.108 0 753.007C0 750.444 0.256339 748.137 0.769018 746.086L183.795 251.607C185.333 245.968 188.409 241.097 193.024 236.996C197.638 232.894 204.046 230.844 212.249 230.844H310.683C318.886 230.844 325.295 232.894 329.909 236.996C334.523 241.097 337.599 245.968 339.137 251.607L522.163 746.086C522.676 748.137 522.932 750.444 522.932 753.007C522.932 757.108 521.394 760.954 518.318 764.542C515.242 767.618 511.397 769.156 506.783 769.156H426.805C419.115 769.156 413.475 767.362 409.887 763.773C406.298 760.185 403.991 756.852 402.966 753.776L369.898 667.646H153.035L119.967 753.776C118.941 756.852 116.634 760.185 113.046 763.773C109.457 767.362 103.817 769.156 96.1273 769.156H16.1494ZM181.488 568.443H340.675L261.466 346.965L181.488 568.443Z" fill="#156bb3"/>
<path d="M774.678 776.847C725.461 776.847 684.19 769.669 650.866 755.314C618.054 740.959 593.189 722.246 576.271 699.176C559.353 676.105 550.381 651.497 549.355 625.35C549.355 621.249 550.893 617.66 553.969 614.584C557.046 610.995 560.891 609.201 565.505 609.201H647.79C654.454 609.201 659.581 610.739 663.17 613.815C666.759 616.378 670.091 619.71 673.167 623.812C676.756 632.527 682.395 640.987 690.086 649.19C698.289 657.392 709.311 664.314 723.153 669.953C736.996 675.08 754.171 677.643 774.678 677.643C808.002 677.643 832.867 672.26 849.272 661.494C866.191 650.728 874.65 636.116 874.65 617.66C874.65 604.33 870.036 593.564 860.808 585.361C852.092 577.158 837.994 569.724 818.512 563.059C799.543 556.395 774.165 549.217 742.379 541.527C703.928 533.324 671.117 522.814 643.945 509.997C617.285 496.668 597.034 479.749 583.192 459.242C569.862 438.222 563.198 412.332 563.198 381.571C563.198 350.81 571.657 323.639 588.575 300.055C605.494 275.959 629.333 257.247 660.094 243.917C690.855 230.075 727.511 223.153 770.064 223.153C804.413 223.153 834.661 227.768 860.808 236.996C887.467 246.224 909.512 258.272 926.943 273.14C944.887 288.007 958.473 303.9 967.701 320.819C976.929 337.737 981.8 354.143 982.313 370.036C982.313 374.137 980.775 377.982 977.698 381.571C974.622 384.647 970.777 386.185 966.163 386.185H880.033C874.906 386.185 870.292 385.16 866.191 383.109C862.089 381.059 858.757 377.47 856.194 372.343C853.118 359.013 843.889 347.478 828.509 337.737C813.641 327.484 794.159 322.357 770.064 322.357C744.942 322.357 724.948 326.971 710.08 336.199C695.725 345.427 688.548 359.526 688.548 378.495C688.548 390.799 692.136 401.309 699.314 410.025C707.004 418.228 719.565 425.662 736.996 432.326C754.94 438.479 778.523 445.4 807.745 453.09C852.861 462.318 889.518 473.341 917.715 486.158C945.912 498.975 966.676 515.637 980.006 536.144C993.335 556.138 1000 581.516 1000 612.277C1000 646.626 990.259 676.105 970.777 700.714C951.808 725.322 925.405 744.291 891.568 757.621C858.244 770.438 819.281 776.847 774.678 776.847Z" fill="#156bb3"/>
</svg>
