<svg width="500" height="500" viewBox="0 0 500 500" fill="none" xmlns="http://www.w3.org/2000/svg">
<rect width="500" height="500" rx="250" fill="white"/>
<path d="M104.845 330.747C103.461 330.747 102.307 330.286 101.384 329.363C100.461 328.286 100 327.133 100 325.902C100 325.133 100.077 324.441 100.231 323.826L155.139 175.482C155.6 173.79 156.523 172.329 157.907 171.099C159.291 169.868 161.214 169.253 163.675 169.253H193.205C195.666 169.253 197.588 169.868 198.973 171.099C200.357 172.329 201.28 173.79 201.741 175.482L256.649 323.826C256.803 324.441 256.88 325.133 256.88 325.902C256.88 327.133 256.418 328.286 255.495 329.363C254.573 330.286 253.419 330.747 252.035 330.747H228.042C225.734 330.747 224.043 330.209 222.966 329.132C221.889 328.055 221.197 327.056 220.89 326.133L210.969 300.294H145.91L135.99 326.133C135.682 327.056 134.99 328.055 133.914 329.132C132.837 330.209 131.145 330.747 128.838 330.747H104.845ZM154.446 270.533H202.203L178.44 204.09L154.446 270.533Z" fill="#156BB3"/>
<path d="M332.403 333.054C317.638 333.054 305.257 330.901 295.26 326.594C285.416 322.288 277.957 316.674 272.881 309.753C267.806 302.832 265.114 295.449 264.807 287.605C264.807 286.375 265.268 285.298 266.191 284.375C267.114 283.298 268.267 282.76 269.651 282.76H294.337C296.336 282.76 297.874 283.222 298.951 284.144C300.028 284.913 301.027 285.913 301.95 287.144C303.027 289.758 304.719 292.296 307.026 294.757C309.487 297.218 312.793 299.294 316.946 300.986C321.099 302.524 326.251 303.293 332.403 303.293C342.401 303.293 349.86 301.678 354.782 298.448C359.857 295.218 362.395 290.835 362.395 285.298C362.395 281.299 361.011 278.069 358.242 275.608C355.628 273.147 351.398 270.917 345.554 268.918C339.863 266.918 332.249 264.765 322.714 262.458C311.178 259.997 301.335 256.844 293.183 252.999C285.186 249 279.11 243.925 274.958 237.773C270.959 231.467 268.959 223.7 268.959 214.471C268.959 205.243 271.497 197.092 276.573 190.017C281.648 182.788 288.8 177.174 298.028 173.175C307.256 169.022 318.253 166.946 331.019 166.946C341.324 166.946 350.398 168.33 358.242 171.099C366.24 173.867 372.854 177.482 378.083 181.942C383.466 186.402 387.542 191.17 390.31 196.246C393.079 201.321 394.54 206.243 394.694 211.011C394.694 212.241 394.232 213.395 393.31 214.471C392.387 215.394 391.233 215.856 389.849 215.856H364.01C362.472 215.856 361.088 215.548 359.857 214.933C358.627 214.318 357.627 213.241 356.858 211.703C355.935 207.704 353.167 204.243 348.553 201.321C344.092 198.245 338.248 196.707 331.019 196.707C323.483 196.707 317.484 198.091 313.024 200.86C308.718 203.628 306.564 207.858 306.564 213.549C306.564 217.24 307.641 220.393 309.794 223.007C312.101 225.468 315.869 227.698 321.099 229.698C326.482 231.544 333.557 233.62 342.324 235.927C355.858 238.695 366.855 242.002 375.315 245.847C383.774 249.692 390.003 254.691 394.002 260.843C398.001 266.841 400 274.455 400 283.683C400 293.988 397.078 302.832 391.233 310.214C385.542 317.597 377.622 323.287 367.471 327.286C357.473 331.131 345.784 333.054 332.403 333.054Z" fill="#156BB3"/>
</svg>
